<?xml version="1.0" encoding="UTF-8" standalone="no"?>
<!-- Created with Inkscape (http://www.inkscape.org/) -->

<svg
   xmlns:dc="http://purl.org/dc/elements/1.1/"
   xmlns:cc="http://creativecommons.org/ns#"
   xmlns:rdf="http://www.w3.org/1999/02/22-rdf-syntax-ns#"
   xmlns:svg="http://www.w3.org/2000/svg"
   xmlns="http://www.w3.org/2000/svg"
   xmlns:sodipodi="http://sodipodi.sourceforge.net/DTD/sodipodi-0.dtd"
   xmlns:inkscape="http://www.inkscape.org/namespaces/inkscape"
   width="640"
   height="480"
   id="svg2"
   version="1.1"
   inkscape:version="0.48.0 r9654"
   sodipodi:docname="pig_logo.svg"
   inkscape:export-filename="/home/vasquezg/job/itesm/game_development/pig/images/pig_logo.png"
   inkscape:export-xdpi="90"
   inkscape:export-ydpi="90">
  <defs
     id="defs4" />
  <sodipodi:namedview
     id="base"
     pagecolor="#ffffff"
     bordercolor="#666666"
     borderopacity="1.0"
     inkscape:pageopacity="0.0"
     inkscape:pageshadow="2"
     inkscape:zoom="1.6333333"
     inkscape:cx="319.38776"
     inkscape:cy="240"
     inkscape:document-units="px"
     inkscape:current-layer="layer1"
     showgrid="false"
     inkscape:window-width="1680"
     inkscape:window-height="978"
     inkscape:window-x="0"
     inkscape:window-y="24"
     inkscape:window-maximized="1" />
  <metadata
     id="metadata7">
    <rdf:RDF>
      <cc:Work
         rdf:about="">
        <dc:format>image/svg+xml</dc:format>
        <dc:type
           rdf:resource="http://purl.org/dc/dcmitype/StillImage" />
        <dc:title></dc:title>
      </cc:Work>
    </rdf:RDF>
  </metadata>
  <g
     inkscape:label="Layer 1"
     inkscape:groupmode="layer"
     id="layer1"
     transform="translate(0,-572.36218)">
    <text
       xml:space="preserve"
       style="font-size:72px;font-style:normal;font-variant:normal;font-weight:normal;font-stretch:normal;line-height:125%;letter-spacing:0px;word-spacing:0px;fill:#000000;fill-opacity:1;stroke:#000000;stroke-opacity:1;font-family:Ubuntu;-inkscape-font-specification:Ubuntu"
       x="107.91612"
       y="830.53931"
       id="text2989"
       sodipodi:linespacing="125%"><tspan
         sodipodi:role="line"
         id="tspan2991"
         x="107.91612"
         y="830.53931"
         style="font-style:italic;fill:#000000;fill-opacity:1;stroke:#000000;stroke-opacity:1;-inkscape-font-specification:Ubuntu Italic">PiG</tspan></text>
    <text
       xml:space="preserve"
       style="font-size:72px;font-style:normal;font-variant:normal;font-weight:normal;font-stretch:normal;line-height:125%;letter-spacing:0px;word-spacing:0px;fill:#000000;fill-opacity:1;stroke:none;font-family:Ubuntu;-inkscape-font-specification:Ubuntu"
       x="112.12012"
       y="859.94232"
       id="text2993"
       sodipodi:linespacing="125%"><tspan
         sodipodi:role="line"
         id="tspan2995"
         x="112.12012"
         y="859.94232"
         style="font-size:24px">quick and dirty...</tspan></text>
    <path
       style="fill:#000000"
       d="m 479.91102,874.72932 c 2.01661,-1.05088 3.75224,-2.72665 3.75224,-3.62285 0,-0.21327 -1.14445,-0.24678 -2.54323,-0.0745 -4.89709,0.60328 -8.15119,-0.83584 -6.53403,-2.88966 0.96259,-1.22253 4.96173,-1.52038 7.10094,-0.52888 1.66101,0.76987 1.74963,0.76193 2.61917,-0.23459 0.495,-0.56728 0.89999,-1.66782 0.89999,-2.44564 l 0,-1.41424 -2.77293,0.32174 c -3.34779,0.38845 -4.94127,-0.006 -4.94127,-1.22357 0,-1.81474 3.25958,-2.43898 6.39098,-1.22393 1.2466,0.4837 1.8857,0.52592 2.28918,0.15123 0.72348,-0.67188 1.32528,-0.12286 0.76524,0.69811 -0.23591,0.34583 -0.35687,1.70773 -0.2688,3.02646 0.13566,2.03127 -0.0424,2.60066 -1.16542,3.72594 -0.72904,0.73054 -1.32554,1.65368 -1.32554,2.05143 0,1.25528 -0.99145,2.5129 -2.96076,3.75562 m 0.6422,-5.56475 c 0.82831,-0.70785 -0.81144,-1.37479 -3.0414,-1.23703 -1.10944,0.0685 -2.11238,0.39352 -2.22877,0.72219 -0.46351,1.30895 3.84806,1.73015 5.27017,0.51484 z m 1.80428,-6.55363 c 0,-0.54816 -1.29306,-1.00628 -2.84025,-1.00628 -1.25477,0 -2.00725,0.59263 -1.43143,1.12736 0.50508,0.46906 4.27168,0.36229 4.27168,-0.12108 z m -57.08507,19.78792 c 0,-0.15061 1.04142,-1.2005 2.31426,-2.33309 2.07783,-1.84888 2.84956,-3.47706 2.0153,-4.25181 -0.16445,-0.1527 -1.12244,0.24131 -2.12889,0.87559 -2.90473,1.83057 -6.31491,1.38474 -6.31491,-0.82558 0,-1.36029 2.04887,-2.31952 4.95437,-2.31952 2.34833,0 2.8281,-0.17626 3.99982,-1.46942 0.83589,-0.92254 1.33141,-2.04827 1.33141,-3.02474 0,-2.06158 -0.39876,-2.33167 -1.72616,-1.16914 -1.63202,1.42931 -2.78587,1.92639 -3.16148,1.36199 -0.63446,-0.95333 0.39013,-2.48455 2.10866,-3.15137 0.96273,-0.37356 1.75042,-0.99869 1.75042,-1.38917 0,-0.39049 0.23143,-0.70999 0.51428,-0.70999 0.28285,0 0.51428,0.37814 0.51428,0.8403 0,0.46217 0.46286,1.10875 1.02856,1.43683 1.51692,0.87975 1.37346,3.80389 -0.29889,6.09244 -1.12876,1.54464 -1.23612,1.97502 -0.71731,2.87527 0.78308,1.35884 0.31874,2.66927 -1.54485,4.35974 -1.55681,1.41219 -4.63887,3.27362 -4.63887,2.80167 z m 1.10016,-6.9505 1.2141,-0.96165 -2.05284,0.12586 c -1.47991,0.0907 -2.10045,0.35912 -2.2234,0.96164 -0.2372,1.16239 1.52725,1.08987 3.06214,-0.12585 z m 3.27122,-8.5902 c 0.40226,-0.60443 -0.27855,-0.60443 -1.2857,0 -0.6648,0.39899 -0.65123,0.46398 0.0982,0.47029 0.4783,0.004 1.01266,-0.20761 1.18748,-0.47029 z m 16.7141,10.13621 c 0,-0.20395 0.93082,-0.28838 2.06849,-0.18762 3.13419,0.27756 5.40836,-0.28522 7.10695,-1.75874 1.58409,-1.3742 2.8918,-4.66825 2.36213,-5.95009 -0.26344,-0.63753 -0.56787,-0.6155 -2.44782,0.17717 -2.55277,1.07634 -4.41725,1.15575 -6.66344,0.28381 -2.17605,-0.84471 -3.10708,-1.93884 -2.6895,-3.16064 0.79036,-2.31254 6.6498,-3.31469 9.99309,-1.70915 1.8172,0.87268 1.94527,0.8594 2.11057,-0.2189 0.24329,-1.58691 -0.0795,-2.42607 -1.51868,-3.94828 -1.45246,-1.53625 -1.62358,-1.58765 -4.75709,-1.42891 -3.74648,0.18979 -5.10589,-0.34325 -4.2174,-1.65369 0.60649,-0.89451 3.45987,-1.08759 5.70601,-0.3861 0.96058,0.29999 1.27611,0.0889 2.0133,-1.34669 0.48081,-0.93634 1.06749,-1.5915 1.30374,-1.45591 0.7,0.40176 0.49006,2.20198 -0.35833,3.07257 -0.71559,0.73431 -0.6694,0.88053 0.50358,1.59428 1.922,1.1695 3.01207,3.44311 2.63522,5.49642 -0.40868,2.22677 -0.4091,2.67773 -0.006,5.57031 0.30418,2.17892 0.19771,2.56271 -1.11192,4.00809 -2.02642,2.23646 -4.94652,3.34975 -8.81936,3.3624 -1.76783,0.006 -3.21424,-0.15639 -3.21424,-0.36033 z m 9.29084,-8.72023 c 1.62242,-0.80635 1.14459,-1.88573 -1.27477,-2.87957 -1.71745,-0.70551 -2.58556,-0.82073 -3.5687,-0.4736 -1.85564,0.65518 -2.61319,2.13953 -1.58108,3.09801 0.92765,0.86146 4.88814,1.01876 6.42455,0.25516 z m -3.77212,-10.34359 c -0.50037,-0.12109 -1.19466,-0.11312 -1.54284,0.0178 -0.34818,0.13083 0.0612,0.2299 0.90978,0.22017 0.84856,-0.01 1.13344,-0.11677 0.63306,-0.23786 z m -48.55906,17.16607 c 1.88528,-1.32578 4.13995,-4.70872 3.63947,-5.46072 -0.14899,-0.22389 -0.90745,0.0138 -1.68546,0.52834 -2.09268,1.38381 -5.85533,2.16598 -7.2014,1.49697 -1.35705,-0.67446 -1.44218,-2.8527 -0.16856,-4.31333 0.8027,-0.92058 1.43862,-1.05414 5.19841,-1.09185 l 4.28384,-0.043 -0.27217,-1.88444 c -0.37382,-2.58817 -0.92501,-2.96789 -2.91846,-2.01058 -1.38115,0.66327 -1.90544,0.69823 -3.17095,0.21142 -1.08281,-0.41651 -1.47197,-0.86024 -1.36145,-1.55238 0.38503,-2.41152 6.42031,-2.00387 7.79517,0.52653 0.38701,0.71227 0.8567,3.06891 1.04375,5.23698 0.41347,4.79222 -0.13955,6.04487 -3.61152,8.18054 -2.99062,1.83959 -4.11581,1.96532 -1.57067,0.1755 z m 0.32365,-6.09213 c 2.2525,-1.04693 2.26687,-1.06892 1.08299,-1.65731 -2.73628,-1.35995 -8.27443,0.86323 -6.65751,2.67251 0.69807,0.78113 2.36137,0.47822 5.57452,-1.0152 z m 1.33957,-7.91111 c 0.41142,-0.61821 -1.74597,-1.48598 -2.87037,-1.15457 -1.23044,0.36267 -1.29601,0.99171 -0.16469,1.57966 0.90055,0.46801 2.59901,0.23013 3.03506,-0.42509 z m 22.14189,0.63068 c 0.15494,-0.72236 0.0367,-1.91033 -0.26265,-2.63994 l -0.54437,-1.32655 -2.04397,0.96836 c -2.68742,1.27321 -2.78534,1.23983 -1.71243,-0.58381 0.71809,-1.22056 0.91319,-2.67454 0.91319,-6.80568 l 0,-5.2535 -2.51468,-4.37789 c -2.4786,-4.31503 -2.506,-4.40993 -1.90909,-6.61134 0.96993,-3.57715 0.17343,-4.50956 -3.86629,-4.52599 -0.88242,-0.004 -3.05325,-0.43634 -4.82408,-0.9617 -1.77082,-0.52535 -3.51969,-0.95518 -3.88638,-0.95518 -1.35133,0 -0.99792,1.69787 0.65794,3.16073 1.88062,1.66146 2.17891,3.6712 1.12293,7.56569 -0.49313,1.81871 -0.3978,2.51873 0.77143,5.66461 0.73374,1.97421 1.33408,4.23986 1.33408,5.03478 0,2.23771 -1.86112,3.85861 -5.27717,4.59605 -3.20907,0.69276 -4.01203,0.37537 -2.4249,-0.95849 1.93315,-1.62467 1.32565,-2.30423 -1.75892,-1.96757 l -2.77535,0.30292 1.68194,-1.56196 c 2.89092,-2.68467 2.8978,-8.33569 0.0123,-10.09146 -0.70158,-0.4269 -2.21364,-1.87823 -3.36014,-3.22518 -1.7851,-2.09722 -2.07773,-2.76498 -2.03717,-4.64877 0.028,-1.30138 -0.54438,-3.74408 -1.40152,-5.98109 l -1.44887,-3.78131 -3.59067,0.0969 c -10.66315,0.28782 -17.26234,-4.85952 -21.34969,-16.65267 -0.84444,-2.43647 -1.01653,-2.61707 -2.37556,-2.49299 -0.80584,0.0736 -3.31657,0.17088 -5.5794,0.21626 -3.54042,0.071 -4.47287,-0.0916 -6.68564,-1.1657 -4.23311,-2.05482 -7.45705,-5.94879 -7.45705,-9.00683 0,-1.9326 1.53929,-4.02644 3.98495,-5.42061 3.4429,-1.96263 5.16256,-3.53802 5.79035,-5.30457 0.48745,-1.3716 0.33495,-1.85884 -1.51372,-4.83659 -1.13069,-1.82123 -2.68916,-4.80672 -3.46327,-6.63442 -1.24924,-2.9495 -1.41017,-3.96736 -1.43148,-9.05418 -0.0227,-5.43409 0.0581,-5.89199 1.56038,-8.83545 1.01242,-1.98365 2.65529,-4.07523 4.55077,-5.7937 2.59457,-2.3523 2.89586,-2.81172 2.40381,-3.66554 -0.52534,-0.91159 -5.46797,-3.43572 -6.72764,-3.43572 -1.19544,0 -4.5696,-1.93372 -5.86089,-3.35885 -2.33185,-2.57356 -1.57398,-7.51533 1.634,-10.65464 0.76285,-0.7465 3.27284,-2.72917 5.57777,-4.40591 3.01265,-2.19159 4.51077,-3.66248 5.32904,-5.23221 1.0512,-2.01659 1.07484,-2.24865 0.30917,-3.03436 -1.73586,-1.78127 -0.52387,-3.34702 1.76905,-2.28541 1.75869,0.81425 2.85624,2.86664 4.38452,8.19897 1.65025,5.75791 1.72537,9.57776 0.25642,13.03867 -0.58724,1.38358 -1.07325,3.42102 -1.07999,4.52767 -0.007,1.10664 -0.21381,2.81802 -0.46012,3.80305 -0.24631,0.98503 -0.33617,1.79096 -0.19968,1.79096 0.1365,0 2.83138,-0.94767 5.98863,-2.10593 6.72275,-2.46628 16.62421,-4.33559 25.44751,-4.80425 3.20181,-0.17007 6.15249,-0.42717 6.55707,-0.57134 1.70495,-0.60758 0.31635,-4.61989 -2.10977,-6.09615 -1.73239,-1.05412 -3.30022,-4.25354 -3.31473,-6.76425 -0.0177,-3.05932 1.80867,-5.49999 8.17317,-10.92239 5.64946,-4.81321 8.6833,-6.66112 11.92427,-7.26307 1.72237,-0.31991 3.54815,0.85139 3.54815,2.27625 0,1.09609 -0.95446,1.6468 -1.68244,0.97075 -0.40949,-0.38027 -0.7348,-0.10032 -1.18602,1.02068 -0.34197,0.84957 -0.92473,2.2336 -1.29502,3.07561 -0.5994,1.36294 -0.54226,1.82447 0.52067,4.20602 0.90832,2.03516 1.13916,3.28849 0.96496,5.23923 -0.31591,3.5378 -2.96506,8.33236 -6.33099,11.45816 l -2.73221,2.5373 3.91434,0.44705 c 3.3493,0.38252 4.27793,0.31875 6.43301,-0.4417 5.83005,-2.0572 11.81609,-3.32313 18.87921,-3.99259 18.03402,-1.70928 19.07593,-1.75475 27.51398,-1.20093 17.12295,1.12385 29.32662,4.67008 44.21492,12.84827 7.89117,4.33466 12.48131,8.23544 13.91526,11.82547 0.51556,1.29072 1.00251,2.42749 1.08213,2.52614 0.0796,0.0987 0.7604,-0.50008 1.51285,-1.33053 1.85657,-2.04901 3.82433,-2.90837 6.65953,-2.90837 2.88743,0 4.94322,1.62133 5.92863,4.6757 0.54091,1.67662 0.77242,1.90175 1.55543,1.51261 1.35891,-0.67539 3.34514,-0.55552 4.0606,0.24505 0.42122,0.47133 0.51392,1.46987 0.2819,3.03647 -0.30012,2.02646 -0.18629,2.50629 0.86339,3.63956 1.20806,1.30426 1.21011,1.30459 2.4343,0.38403 1.38963,-1.04499 1.02041,-2.25753 -0.56984,-1.87133 -0.79361,0.19272 -0.96806,0.0282 -0.84195,-0.79418 0.23798,-1.55176 2.47526,-1.39429 3.46539,0.2439 0.69786,1.15463 0.68749,1.45034 -0.10494,2.99353 -1.20288,2.34254 -3.08117,3.10773 -5.05112,2.05778 -1.41173,-0.75241 -1.51143,-0.74553 -2.02139,0.13936 -0.80986,1.40527 -4.61448,1.14616 -4.61448,-0.31426 0,-0.77289 -0.81976,-0.8878 -1.29024,-0.18087 -0.85816,1.28947 -4.59324,2.48198 -7.15656,2.2849 l -2.61022,-0.20069 -0.018,5.28257 c -0.0209,6.10965 -1.16951,10.8041 -4.33074,17.69996 -1.08375,2.36407 -2.95295,7.19969 -4.15375,10.7458 -1.20119,3.54721 -2.92564,7.52166 -3.83357,8.83544 -1.95138,2.82365 -5.64684,6.11219 -9.62492,8.56506 l -2.86611,1.76723 -0.22383,2.95291 c -0.15894,2.09664 -0.86915,4.33781 -2.44924,7.72884 -1.89723,4.07161 -2.28894,5.48021 -2.65631,9.55182 -0.59117,6.55212 -1.32512,9.12477 -3.15555,11.06079 -1.37503,1.45436 -3.8489,3.02817 -4.75997,3.02817 -0.17795,0 -0.17105,-0.64475 0.0153,-1.43278 0.39233,-1.6589 0.0236,-1.74286 -3.08569,-0.70261 -1.13142,0.37853 -2.10432,0.69147 -2.16203,0.69542 -0.0577,0.004 0.45319,-1.11146 1.1353,-2.47871 1.17063,-2.34643 1.2239,-2.83541 0.94937,-8.71604 -0.15997,-3.42658 -0.6379,-7.38557 -1.06209,-8.79776 -0.70645,-2.3519 -0.65312,-4.96306 0.14059,-6.88386 0.22509,-0.54474 -0.37216,-0.77244 -2.69886,-1.02894 -4.10132,-0.45214 -6.67195,-1.10803 -9.53183,-2.43203 -1.33633,-0.61865 -2.53546,-0.96588 -2.66475,-0.77161 -0.49371,0.74185 -3.84895,9.53654 -4.86683,12.75682 -1.24908,3.95172 -2.76579,6.2171 -5.16972,7.72154 -2.29951,1.43909 -2.76085,1.37114 -2.35455,-0.34682 0.33803,-1.4292 0.33301,-1.43277 -2.01624,-1.43277 -2.6277,0 -2.63862,-0.0121 -1.64241,-1.81469 0.392,-0.70932 0.99881,-2.57916 1.34846,-4.15521 0.34965,-1.57605 1.20469,-3.87643 1.9001,-5.11195 1.17687,-2.09096 1.22308,-2.43105 0.6677,-4.91541 -0.47963,-2.14555 -0.76514,-2.62003 -1.45569,-2.41916 -3.19351,0.92894 -14.1888,3.25876 -16.416,3.47842 -1.48498,0.14645 -2.69997,0.42489 -2.69997,0.61873 0,0.19386 0.37166,1.1785 0.82591,2.18811 0.91613,2.03618 0.76536,4.47854 -0.54087,8.76141 -0.76159,2.49712 -0.73929,2.80567 0.56285,7.78593 1.17787,4.50498 1.27569,5.4343 0.74507,7.07898 -0.79381,2.4605 -3.13889,4.90552 -5.89217,6.14328 -2.9446,1.32377 -3.45001,1.27079 -3.10757,-0.32575 z M 370.0074,802.96175 c 0,-1.091 -0.81082,-1.69692 -1.29574,-0.96829 -0.43201,0.64914 0.0712,1.89529 0.76532,1.89529 0.29173,0 0.53042,-0.41715 0.53042,-0.927 z m 3.50716,-0.62518 c -0.0904,-0.59101 -0.51148,-1.07457 -0.93576,-1.07457 -0.42428,0 -0.84538,0.48356 -0.93575,1.07457 -0.12649,0.82705 0.0891,1.07459 0.93575,1.07459 0.84668,0 1.06224,-0.24754 0.93576,-1.07459 z m 2.6642,-1.31337 c 0,-0.52536 -0.21777,-0.95518 -0.48393,-0.95518 -0.69034,0 -1.17678,0.86927 -0.80176,1.43277 0.53748,0.80762 1.28569,0.52968 1.28569,-0.47759 z m 2.49195,-1.16916 c 0.11365,-0.54446 -0.0717,-0.7741 -0.51429,-0.63724 -0.38057,0.11769 -0.77192,0.59702 -0.86965,1.06519 -0.11365,0.54447 0.0716,0.77411 0.51429,0.63723 0.38058,-0.11768 0.77192,-0.59702 0.86965,-1.06518 z M 363.5789,795.0533 c 0,-1.19249 -0.20622,-1.43277 -1.22964,-1.43277 -1.64623,0 -2.54851,1.32538 -1.61408,2.37097 0.38313,0.42871 1.1797,0.71537 1.77017,0.63702 0.8159,-0.10826 1.07355,-0.48631 1.07355,-1.57522 z m -9.53465,0.0229 c 1.03536,-1.15854 0.15513,-2.72924 -1.43353,-2.55805 -1.52705,0.16455 -2.08113,1.45673 -1.09688,2.55807 0.78962,0.88355 1.74077,0.88354 2.53041,-2e-5 z m 35.97317,-22.44721 c 2.78457,-1.33723 3.67809,-6.07721 1.5434,-8.18739 -1.73508,-1.71515 -4.6083,-2.39037 -7.15566,-1.68161 -2.52625,0.70289 -3.67776,2.23418 -3.99648,5.31459 -0.21888,2.11539 -0.0923,2.4779 1.32444,3.79358 1.33833,1.24286 1.95037,1.4547 4.20294,1.4547 1.45007,0 3.28668,-0.31224 4.08136,-0.69387 z m -4.21439,-2.46744 c -0.20197,-0.18757 -0.36723,-0.94501 -0.36723,-1.6832 0,-2.43766 3.98469,-3.73743 5.3331,-1.73959 0.80343,1.19039 -1.11122,3.43589 -3.08817,3.62178 -0.83076,0.0781 -1.67573,-0.0114 -1.8777,-0.19899 z m 3.74701,-3.04739 c 0,-0.26268 -0.24509,-0.4776 -0.54463,-0.4776 -0.29955,0 -0.4016,0.21492 -0.22679,0.4776 0.17482,0.26268 0.4199,0.47759 0.54463,0.47759 0.12473,0 0.22679,-0.21491 0.22679,-0.47759 z m -28.07895,-1.14353 c 2.2916,-0.88918 3.39351,-2.46995 3.39351,-4.86822 0,-2.5421 -1.47607,-4.31315 -4.15257,-4.98244 -1.66971,-0.41754 -2.29951,-0.36802 -3.46732,0.27262 -2.00032,1.09733 -3.69426,3.57429 -3.69426,5.40194 0,1.71871 1.16726,4.1459 2.17487,4.5224 1.27745,0.4773 4.05454,0.30993 5.74577,-0.3463 z m -3.74622,-2.77879 c -0.64846,-1.62789 -0.0813,-2.77006 1.7861,-3.59704 2.01019,-0.8902 3.29652,-0.27003 3.29652,1.58934 0,2.50333 -4.22102,4.17068 -5.08262,2.0077 z m 4.56833,-2.55335 c 0,-0.11584 -0.36079,-0.21061 -0.80177,-0.21061 -0.44098,0 -0.65641,0.21842 -0.47874,0.48539 0.29355,0.44108 1.28051,0.2293 1.28051,-0.27478 z"
       id="path3008"
       inkscape:connector-curvature="0"
       sodipodi:nodetypes="csssssscsssssssscsssssssssssssssssssssssssssscssssscssssssssssssssssssssssssssssccccccscssscsssssssccsssssssscccssscsscssssssssscssscscsssssssssssssssssssssssssssssssssssssssscsssssssssssssssssssssssscssssscssssssscsssssssssssssssssssssssccsssssssssssssssssssssssssssssssssssssssssssssssssssssssssss" />
    <text
       xml:space="preserve"
       style="font-size:24px;font-style:normal;font-variant:normal;font-weight:normal;font-stretch:normal;line-height:125%;letter-spacing:0px;word-spacing:0px;fill:#000000;fill-opacity:1;stroke:none;font-family:Ubuntu;-inkscape-font-specification:Ubuntu"
       x="111.95212"
       y="737.66827"
       id="text4035"
       sodipodi:linespacing="125%"><tspan
         sodipodi:role="line"
         id="tspan4037"
         x="111.95212"
         y="737.66827">Created with</tspan></text>
  </g>
</svg>
