<?xml version="1.0" encoding="UTF-8" standalone="no"?>
<!-- Created with Inkscape (http://www.inkscape.org/) -->

<svg
   xmlns:dc="http://purl.org/dc/elements/1.1/"
   xmlns:cc="http://creativecommons.org/ns#"
   xmlns:rdf="http://www.w3.org/1999/02/22-rdf-syntax-ns#"
   xmlns:svg="http://www.w3.org/2000/svg"
   xmlns="http://www.w3.org/2000/svg"
   xmlns:sodipodi="http://sodipodi.sourceforge.net/DTD/sodipodi-0.dtd"
   xmlns:inkscape="http://www.inkscape.org/namespaces/inkscape"
   width="50.916393"
   height="51.071205"
   id="svg2"
   version="1.1"
   inkscape:version="0.48.0 r9654"
   sodipodi:docname="rock.svg"
   inkscape:export-filename="/home/vasquezg/job/itesm/game_development/pig/images/rock.png"
   inkscape:export-xdpi="90"
   inkscape:export-ydpi="90">
  <sodipodi:namedview
     id="base"
     pagecolor="#ffffff"
     bordercolor="#666666"
     borderopacity="1.0"
     inkscape:pageopacity="0.0"
     inkscape:pageshadow="2"
     inkscape:zoom="3.925"
     inkscape:cx="53.140599"
     inkscape:cy="-0.72274045"
     inkscape:document-units="px"
     inkscape:current-layer="layer1"
     showgrid="true"
     inkscape:showpageshadow="false"
     inkscape:window-width="1680"
     inkscape:window-height="978"
     inkscape:window-x="0"
     inkscape:window-y="24"
     inkscape:window-maximized="1"
     fit-margin-top="0"
     fit-margin-left="0"
     fit-margin-right="0"
     fit-margin-bottom="0">
    <inkscape:grid
       type="xygrid"
       id="grid2985"
       empspacing="10"
       visible="true"
       enabled="true"
       snapvisiblegridlinesonly="true"
       spacingx="2px"
       spacingy="2px" />
  </sodipodi:namedview>
  <defs
     id="defs4">
    <filter
       id="filter3873"
       inkscape:label="Bubbly Bumps"
       inkscape:menu="Bumps"
       inkscape:menu-tooltip="Flexible bubbles effect with some displacement"
       color-interpolation-filters="sRGB">
      <feGaussianBlur
         id="feGaussianBlur3875"
         result="result0"
         in="SourceGraphic"
         stdDeviation="0.5" />
      <feTurbulence
         id="feTurbulence3877"
         baseFrequency="0.2"
         seed="300"
         numOctaves="10"
         result="result1"
         type="fractalNoise" />
      <feGaussianBlur
         id="feGaussianBlur3879"
         stdDeviation="0.5"
         result="result8" />
      <feDisplacementMap
         id="feDisplacementMap3881"
         in2="result8"
         result="result7"
         scale="5"
         in="result0"
         xChannelSelector="R"
         yChannelSelector="A" />
      <feComposite
         id="feComposite3883"
         in2="result1"
         result="result2"
         operator="in"
         in="result7" />
      <feComposite
         id="feComposite3885"
         in2="result2"
         k3="3"
         in="result0"
         operator="arithmetic"
         result="result9"
         k1="0"
         k2="0"
         k4="0" />
      <feBlend
         id="feBlend3887"
         in2="result2"
         result="fbSourceGraphic"
         mode="multiply" />
      <feColorMatrix
         id="feColorMatrix3889"
         values="1 0 0 -1 0 1 0 1 -1 0 1 0 0 -1 0 -1.8 -0.5 0 5.7 -3.5 "
         in="fbSourceGraphic"
         result="fbSourceGraphicAlpha" />
      <feGaussianBlur
         id="feGaussianBlur3891"
         stdDeviation="0.5"
         in="fbSourceGraphicAlpha"
         result="result0" />
      <feSpecularLighting
         id="feSpecularLighting3893"
         result="result6"
         surfaceScale="5"
         specularExponent="3">
        <feDistantLight
           id="feDistantLight3895"
           azimuth="225"
           elevation="10" />
      </feSpecularLighting>
      <feComposite
         id="feComposite3897"
         in2="fbSourceGraphicAlpha"
         in="result6"
         result="result2"
         operator="in" />
      <feComposite
         id="feComposite3899"
         in2="result2"
         in="fbSourceGraphic"
         result="result4"
         operator="arithmetic"
         k2="1"
         k3="0.7"
         k1="0"
         k4="0" />
    </filter>
  </defs>
  <metadata
     id="metadata7">
    <rdf:RDF>
      <cc:Work
         rdf:about="">
        <dc:format>image/svg+xml</dc:format>
        <dc:type
           rdf:resource="http://purl.org/dc/dcmitype/StillImage" />
        <dc:title></dc:title>
      </cc:Work>
    </rdf:RDF>
  </metadata>
  <g
     inkscape:label="Layer 1"
     inkscape:groupmode="layer"
     id="layer1"
     transform="translate(1.0045156,-993.9956)">
    <path
       inkscape:connector-curvature="0"
       style="fill:#888a85;fill-opacity:1;stroke:#2e3436;stroke-width:2;stroke-linecap:round;stroke-linejoin:round;stroke-miterlimit:4;stroke-opacity:1;filter:url(#filter3873)"
       d="m 0.924598,996.62659 0.132793,-0.1271 0.180374,-0.036 0.154848,-0.087 0.13166,-0.1192 0.172768,-0.067 0.18302,0.029 0.162225,0.087 0.183922,0 0.179676,0.042 0.134225,0.12661 0.0989,0.1576 0.16938,0.077 0.182195,0.013 0.169329,-0.068 0.177565,0.012 0.177955,0 0.128262,-0.1226 0.122787,-0.12801 0.04605,-0.172 0.01547,-0.1773 0.08229,-0.1629 0.121898,-0.1359 0.191409,0.02 0.159821,-0.1072 0.164432,-0.073 0.138179,-0.1155 0.143001,-0.1263 0.02273,-0.1895 0.159752,-0.086 0.152618,-0.098 0.181491,0.01 0.178962,0.031 0.02283,0.1914 0.109848,0.15841 -0.04929,0.1874 0.05159,0.1867 0.148712,0.1086 0.146421,0.11159 0.186037,0.055 0.115446,0.1561 0.190037,-0.016 0.178364,-0.068 0.16064,0.1015 0.17876,0.064 0.175801,0.058 0.157835,0.097 0.113181,0.145 0.104909,0.1511 0.180041,0.024 0.135022,0.1214 0.169253,-0.039 0.172483,-0.021 0.166719,0 0.162823,0.036 0.155836,0.072 0.170814,-0.016 0.166632,0.062 0.170984,0.048 0.166009,-0.068 0.178232,-0.019 0.127315,-0.1211 0.144713,-0.1 0.16358,-0.071 0.178407,-0.01 0.08761,0.1375 0.157024,0.044 0.145113,0.049 0.130829,0.08 0.160829,0 0.1234,0.1032 0.142489,0.051 0.142257,0.052 0.148567,0.1095 0.184065,-0.013 0.154035,-0.079 0.157599,-0.072 0.156027,0.066 0.16217,0.049 0.139863,0.1084 0.05617,0.1677 0.104329,0.123 0.1183,0.1097 0.167625,0.01 0.137108,0.097 0.162199,0 0.153191,-0.053 0.154828,0.041 0.154976,0.041 0.153368,0.018 0.154403,0 0.148842,-0.045 0.155115,-0.01 0.153355,0.024 0.137645,0.072 0.155244,0.011 0.141765,0.064 0.133665,-0.082 0.151125,-0.043 0.118338,-0.1126 0.161794,-0.022 0.166878,-0.021 0.152557,-0.071 0.15784,0.055 0.142533,0.087 0.149732,-0.061 0.101689,-0.1258 0.148811,-0.074 0.162197,0.036 0.149236,-0.049 0.13878,-0.074 0.152537,0.045 0.158759,-0.01 0.107425,-0.1134 0.123288,-0.096 0.158226,-0.052 0.08341,-0.1443 0.159959,0.037 0.158718,-0.042 0.129067,-0.1 0.158581,-0.038 0.163414,-0.061 0.07729,-0.1562 0.137807,-0.09 0.159644,-0.039 0.156629,-0.066 0.169995,0.01 0.157738,0.052 0.152673,0.066 0.139454,-0.1041 0.102717,-0.14059 0.169845,-0.041 0.173692,0.018 0.158403,-0.051 0.158112,-0.052 0.09933,-0.1347 0.126473,-0.1096 0.165883,-0.045 0.156724,-0.07 0.158693,-0.065 0.150458,-0.082 -0.01257,-0.1847 0.106718,-0.1514 0.129153,-0.1201 0.08895,-0.15239 0.167757,0.055 0.09847,0.1465 0.161456,0.044 0.15167,0.071 0.125838,0.1325 0.178689,0.038 0.182182,0.035 0.162871,-0.089 0.151689,-0.09 0.17277,0.036 0.160447,0.05 0.166994,-0.018 0.169215,0.03 0.153583,-0.077 0.157805,-0.057 0.166379,0.02 0.05832,0.1539 0.130411,0.1004 0.122164,0.1134 0.165644,0.019 0.08891,0.1447 0.161415,0.053 0.158447,0.018 0.158464,0.018 0.154366,-0.042 0.15415,-0.043 0.157754,-0.062 0.161908,0.05 0.107831,0.1311 0.167012,0.03 0.135534,0.092 0.161918,0.023 0.153469,0.078 0.148562,0.087 0.08745,0.148 0.08088,0.1517 0.173687,-0.012 0.1738,-0.01 0.149394,0.09 0.141596,0.1015 0.172629,0.017 0.154195,0.079 0.160298,-0.072 0.17529,0.014 0.177796,0 0.162548,-0.072 0.104244,-0.1409 0.139756,-0.1058 0.107636,-0.1342 0.154807,-0.075 0.137797,-0.096 0.139083,-0.094 0.169298,0 0.166925,-0.029 0.166974,0.023 0.167729,0.017 0.161143,-0.034 0.164273,-0.012 0.158406,0.052 0.166792,0 0.109352,0.1337 0.167921,0.041 0.170605,0.01 0.13943,0.098 0.15458,-0.036 0.125724,-0.097 0.09722,-0.1344 0.161978,-0.036 0.146348,-0.064 0.09747,-0.1266 0.08446,-0.1379 0.147023,-0.067 0.158481,0.061 0.167563,-0.029 0.128464,-0.1129 0.169392,-0.024 0.14949,-0.071 0.161138,-0.038 0.150613,-0.091 0.05231,-0.1682 0.153762,0.039 0.151376,0.047 0.158425,-0.036 0.158683,0.035 0.161397,0.01 0.148567,-0.063 0.157707,0.01 0.157484,-0.013 0.101451,0.1301 0.144909,0.079 0.07995,0.1411 0.103143,0.1252 0.148203,0.07 0.128316,0.1019 0.167682,-0.01 0.151682,0.072 0.154478,0.043 0.156306,0.035 0.163915,0.02 0.154238,-0.059 0.169396,0.01 0.163002,0.046 0.113466,-0.1355 0.171311,-0.043 0.17461,0.023 0.167714,-0.054 0.155975,0.073 0.145844,0.091 0.148558,0.084 0.137536,0.1013 0.01855,0.1812 0.132783,0.1245 0.10703,-0.119 0.08512,-0.1356 0.12136,-0.1035 0.119109,-0.1062 0.137608,-0.087 0.160773,-0.027 0.129071,-0.094 0.134031,-0.087 0.152253,-0.049 0.158223,-0.024 0.169771,0.01 0.13557,-0.1026 0.161597,-0.01 0.15482,0.047 0.160446,0 0.155788,0.038 0.16021,-0.01 0.153319,-0.047 0.158725,-0.048 0.107595,-0.1262 0.162027,-0.021 0.126846,-0.103 0.139111,-0.077 0.110079,-0.1147 0.166038,-0.025 0.139909,0.093 0.148951,0.053 0.157692,0.011 0.163984,0.029 0.148015,-0.076 0.161032,-0.03 0.153324,0.058 0.17165,0.018 0.128152,0.1156 0.147947,0.087 0.171124,-0.01 0.142448,0.099 0.0475,0.1669 0.05149,0.1677 0.151298,0.089 0.146208,0.097 0.153147,0.086 0.16332,-0.085 0.182413,0.025 0.04831,0.1709 0.08123,0.158 0.17717,0.038 0.143118,0.1112 0.164191,0.047 0.16772,-0.032 0.16085,-0.042 0.155731,-0.058 0.159932,-0.041 0.147756,-0.074 0.152815,-0.064 0.129789,-0.103 0.124397,0.1337 0.179577,0.034 0.163748,-0.063 0.175082,-0.012 0.08841,0.1638 0.175327,0.063 0.175163,0.062 0.172405,-0.07 -0.163762,0.062 -0.169828,0.043 -0.125081,0.1226 -0.109551,0.1367 -0.08437,0.1587 -0.116171,0.1372 -0.03893,0.1823 0.06686,0.1741 -0.02052,0.1597 -0.08201,0.1385 -0.09956,0.1273 -0.03498,0.1578 -0.0091,0.1639 -0.09515,0.1337 -0.09138,0.1407 0.02036,0.1665 0.102292,0.1263 0.01803,0.1616 0.108257,0.1273 -0.0052,0.1671 0.01458,0.1564 0.05068,0.1486 0.02596,0.1541 0.04681,0.14909 0.06003,0.1525 0.11473,0.1169 0.08048,0.1403 0.04324,0.156 -0.06987,0.1539 0.02842,0.1666 0.07366,0.1516 -0.02116,0.1673 -0.02887,0.1589 0.08686,0.1361 0.02793,0.1522 0.09469,0.1224 0.126324,0.095 0.08797,0.1316 0.07292,0.1457 -0.0197,0.1617 0.07273,0.1345 0.04695,0.1455 0.04639,0.1511 -0.03881,0.1532 0.04925,0.1468 0.0035,0.1548 0.05968,0.145 0.115111,0.1064 0.06103,0.1483 0.05056,0.1522 0.09607,0.135 0.01751,0.1648 0.02239,0.1688 -0.05291,0.1618 -0.05583,0.1639 -0.136242,0.1068 -0.0062,0.1693 0.09123,0.1428 -0.07759,0.1485 0.0072,0.1673 -0.07265,0.1402 -0.06795,0.1426 -0.06995,0.1463 -0.127385,0.1003 -0.0054,0.1603 0.02908,0.1577 0.06292,0.1587 0.152528,0.076 0.04905,0.1513 0.10288,0.1212 0.03353,0.1566 -0.03832,0.1554 -0.0171,0.1629 -0.04033,0.1587 0.04035,0.1586 0.02152,0.1622 0.130808,0.1206 0.173869,0.038 0.05802,0.1616 0.06661,0.1582 0.08873,0.1447 0.101581,0.1359 -0.0096,0.1696 -0.03289,0.1667 0.0033,0.1651 -0.08466,0.1417 -0.06146,0.1467 -0.04271,0.1532 -0.12587,0.1053 -0.05328,0.1552 -0.06099,0.1574 -0.149345,0.079 -2.97e-4,0.1637 0.02795,0.1613 -0.08509,0.1405 -0.05007,0.1564 0.114006,0.1237 0.104049,0.1321 0.0168,0.1679 0.04436,0.1627 -0.04371,0.1571 -0.03974,0.1582 -0.07376,0.1583 0.05091,0.1671 -0.07584,0.1353 -0.07426,0.1362 -0.0747,0.137 -0.102869,0.1173 -0.08711,0.1283 -0.08699,0.1283 -0.03867,0.1563 -0.114301,0.1134 0.07397,0.1374 -0.0099,0.1557 0.0019,0.1503 -0.01406,0.1495 0.06532,0.1519 -0.04306,0.1597 0.09752,0.122 0.100806,0.1193 0.03583,0.154 -0.03628,0.1538 -0.06618,0.1391 -0.07585,0.134 0.03683,0.1463 0.03542,0.1466 -0.04172,0.15 0.03603,0.1516 -0.04937,0.1531 -0.04258,0.1552 -0.08649,0.1372 -0.117526,0.1117 -0.07315,0.1579 0.03029,0.1714 0.09547,0.1369 0.06496,0.1538 0.04596,0.1534 0.130224,0.093 0.100501,0.1258 -0.0019,0.1609 0.0442,0.1642 0.135546,0.1027 -0.0416,0.1565 -0.0052,0.1618 0.01222,0.1579 0.05199,0.1496 -0.05684,0.1488 -0.102715,0.1218 -0.04814,0.1412 -0.01979,0.1478 0.0085,0.1483 0.01929,0.1472 0.151572,0.074 0.07923,0.1489 0.07038,0.1446 0.04706,0.1538 -0.02065,0.1553 -0.017,0.1558 -0.08175,0.1453 0.03049,0.1639 -0.02996,0.1647 -0.04046,0.1625 -0.08334,0.1455 -0.0615,0.1561 -0.139329,0.091 -0.144572,0.082 -0.144221,0.085 -0.12443,0.1116 -0.03236,0.1628 0.01993,0.1647 6.8e-4,0.1758 -0.118253,0.1301 -0.03935,0.1671 0.04037,0.1668 0.104573,0.1328 0.05806,0.1588 0.0044,0.1642 0.108853,0.1229 0.01706,0.1577 0.08667,0.1329 0.09654,0.1389 0.150208,0.078 0.02315,0.1626 0.02678,0.1619 0.05261,0.1591 0.08858,0.1422 -0.04134,0.1613 -0.02542,0.1646 -0.01673,0.1592 -0.0487,0.1524 -0.02636,0.1647 -0.115293,0.1204 -0.09636,0.1199 -0.06229,0.1406 -0.122208,0.1083 -0.01886,0.1622 0.01802,0.153 0.01126,0.1538 0.0131,0.1598 -0.0743,0.1422 0.08542,0.1282 0.07636,0.1337 0.0633,0.1404 0.05325,0.1445 0.02668,0.1537 0.01601,0.1552 -0.04379,0.1499 -0.02473,0.1543 0.04325,0.1508 0.08419,0.1323 -0.07943,0.1467 0.04153,0.1615 0.09155,0.1236 0.0256,0.1516 0.05737,0.1382 0.04789,0.1418 0.0055,0.1571 -0.03675,0.1528 -0.06544,0.1459 -0.123165,0.102 -0.01662,0.1553 -0.07549,0.1366 0.03465,0.1503 -0.0043,0.1543 -0.0061,0.1576 -0.03405,0.154 -0.06087,0.145 -0.07169,0.1399 0.07169,0.1432 -0.0038,0.16 -0.0061,0.1643 0.09637,0.1331 0.07983,0.1342 0.121193,0.098 0.08842,0.1264 0.06715,0.1389 0.114867,0.121 0.0082,0.1666 -0.04094,0.1561 0.03749,0.1568 -0.0073,0.157 -0.06417,0.1435 0.0026,0.1616 0.09335,0.1319 -0.104635,0.1161 -0.03377,0.1526 0.02499,0.1548 -0.05863,0.1455 -0.0092,0.1611 0.07273,0.144 0.0042,0.1558 -0.0029,0.1559 -0.110567,0.1232 -0.142746,0.084 -0.08247,0.1484 0.0058,0.1697 -0.06583,0.1755 0.06966,0.174 0.0655,0.1625 0.0878,0.1517 0.124425,0.1286 0.03625,0.1752 0.07881,0.1576 0.0024,0.1763 0.183215,-0.01 0.160574,0.089 0.139751,0.1091 0.119432,0.1309 0.166872,0.057 0.150209,0.092 0.152908,0.1017 0.06759,0.1707 -0.0233,0.1672 0.02319,0.1672 0.01213,0.1709 0.08435,0.1492 0.06815,0.1534 0.101852,0.1334 0.110838,0.1411 -0.01675,0.1787 0.08911,0.1549 -0.02202,0.1773 -0.08895,0.1561 0.02824,0.1774 -0.04501,0.1796 0.05524,0.1768 -0.07827,0.1673 -0.152335,0.1046 -0.140343,0.1141 -0.05971,0.1708 -0.01336,0.1749 0.02864,0.173 -0.0461,0.1688 -0.132979,0.1138 -0.08553,0.1524 0.01293,0.1743 0.08527,0.1659 0.161065,0.094 -0.039,0.1856 0.08496,0.1696 -0.02339,0.1742 0.04745,0.1693 -0.06621,0.1615 -0.01033,0.1742 -0.03563,0.1676 -0.114841,0.127 -0.131196,0.1011 -0.120372,0.1138 -0.128977,0.1166 -0.02815,0.1716 -0.01825,0.1637 -0.0446,0.1586 -0.121206,0.1283 -0.173952,0.03 -0.136677,0.097 -0.144503,0.085 -0.115117,0.1266 -0.06181,0.1595 -0.03544,0.1661 -0.07871,0.1504 -0.145182,-0.1001 -0.174828,0.023 -0.148219,0.072 -0.148259,0.071 -0.155297,0.044 -0.160974,0.013 -0.147965,-0.063 -0.153376,-0.049 -0.166031,-0.013 -0.165864,0.015 -0.16584,-0.01 -0.164049,-0.026 -0.09015,0.1454 -0.112669,0.1288 -0.140838,0.1003 -0.165668,0.049 -0.165781,0 -0.164367,-0.022 -0.160142,-0.057 -0.118073,-0.1223 -0.08718,-0.1371 -0.125037,-0.1036 -0.125792,-0.1055 -0.07041,-0.1484 -0.129038,-0.093 -0.157656,-0.022 -0.146297,-0.049 -0.146735,-0.048 -0.163111,-0.036 -0.115268,-0.1211 -0.160702,-0.044 -0.159172,0.05 -0.155371,0.058 -0.157001,-0.053 -0.126279,0.094 -0.144118,0.063 -0.154836,0.012 -0.148844,-0.044 -0.14558,-0.047 -0.13694,-0.069 -0.167098,0 -0.12809,0.1073 -0.121198,0.1015 -0.107162,0.1163 -0.152161,-0.048 -0.147362,-0.061 -0.158363,0.018 -0.157181,0.027 -0.151916,0.036 -0.146481,0.054 -0.09793,0.1301 -0.153747,0.054 -0.162588,0.029 -0.163594,0.022 -0.09687,0.1338 -0.107469,0.1255 -0.152408,-0.056 -0.120288,-0.1091 -0.151115,-0.054 -0.159662,-0.017 -0.164384,0.04 -0.152654,-0.073 -0.156341,0.031 -0.154947,0.037 -0.164802,0.017 -0.116898,0.1175 -0.164626,0.024 -0.110079,0.1247 -0.09656,0.1321 -0.153838,0.056 -0.14538,0.076 -0.07464,0.1463 -0.161202,0.03 -0.163962,9e-4 -0.160923,-0.066 -0.165466,0.053 -0.145659,0.087 -0.162834,0.047 -0.08089,0.1501 -0.125431,0.1156 -0.09621,-0.135 -0.139799,-0.089 -0.142141,-0.086 -0.164803,-0.022 -0.18064,-0.013 -0.144402,0.1093 -0.153505,-0.072 -0.156682,-0.065 -0.165846,0.032 -0.168065,-0.016 -0.161878,-0.062 -0.10615,-0.1373 -0.167501,0.014 -0.153269,-0.069 -0.16532,0.021 -0.140946,0.089 -0.163995,0.017 -0.121438,0.1114 -0.15601,0.014 -0.156633,0 -0.147467,0.067 -0.129392,0.097 -0.158154,-0.043 -0.162661,0.02 -0.151974,-0.09 -0.145909,-0.099 -0.179404,-4e-4 -0.167867,0.063 -0.108919,0.1295 -0.139995,0.095 -0.13656,0.1162 -0.179226,0 -0.152132,-0.075 -0.06721,-0.1555 -0.134897,-0.086 -0.111617,-0.1147 -0.113157,-0.1351 -0.168442,-0.052 -0.175233,-0.042 -0.160522,0.082 -0.122102,-0.1074 -0.121366,-0.1083 -0.09511,-0.1337 -0.126658,-0.1043 -0.167873,0.01 -0.15223,-0.071 -0.16231,-0.053 -0.16388,0.048 -0.131192,0.1029 -0.165654,0.019 -0.160523,-0.029 -0.160222,0.031 -0.152268,0.062 -0.164302,3e-4 -0.147579,-0.075 -0.165383,0 -0.07743,0.1584 -0.02375,0.1747 -0.160783,0.07 -0.141073,0.1039 -0.171446,-0.01 -0.169501,0.027 -0.113794,0.1297 -0.145849,0.092 -0.160675,-0.069 -0.17006,0.041 -0.109293,-0.1409 -0.175877,-0.029 -0.167684,-0.054 -0.167362,0.055 -0.143279,0.087 -0.145825,0.082 -0.161392,0.045 -0.160925,0.047 -0.07445,0.1518 -0.110796,0.1276 -0.157103,0.057 -0.117871,0.1187 -0.161738,0.068 -0.164764,-0.06 -0.104768,-0.1413 -0.03242,-0.1729 -0.106711,-0.1352 -0.07781,-0.1536 -0.171059,-0.072 -0.09748,-0.1582 -0.168308,-0.063 -0.179838,-7e-4 -0.125482,-0.1242 -0.07996,-0.1574 -0.05481,-0.1739 -0.14276,-0.1134 -0.179906,0.05 -0.171275,-0.074 -0.153864,-0.092 -0.177005,-0.028 -0.160285,0.051 -0.158465,0.057 -0.119847,0.1254 -0.164808,0.054 -0.170528,-0.037 -0.165549,-0.055 -0.145766,0.1168 -0.18641,-0.012 -0.165884,7e-4 -0.16098,0.04 -0.163695,-0.041 -0.165594,0.033 -0.165116,-0.064 -0.166851,0.06 -0.144893,-0.093 -0.171713,-0.01 -0.164654,-0.032 -0.167586,-0.01 -0.134832,-0.1007 -0.152649,-0.071 -0.181606,0 -0.147163,-0.1065 -0.162691,0.06 -0.163536,0.058 -0.09465,0.1464 -0.151582,0.086 -0.161455,0.058 -0.171651,0 -0.160882,0.05 -0.129336,0.1079 -0.128638,0.1075 -0.08454,0.1448 -0.159793,0.036 -0.159429,-0.038 -0.123455,0.1014 -0.131232,0.091 -0.134486,0.098 -0.07702,0.1478 -0.156058,0.062 -0.166253,-0.024 -0.155237,0.066 -0.168498,0.01 -0.09788,0.1338 -0.09684,0.1346 -0.136367,0.093 -0.164006,0.016 -0.157568,-0.027 -0.158846,-0.017 -0.148975,-0.057 -0.142534,-0.072 -0.168717,-2e-4 -0.132308,-0.1047 -0.105453,-0.1212 -0.131091,-0.093 -0.103626,-0.1213 -0.109775,-0.1158 -0.165782,-0.01 -0.162196,0.035 -0.171261,-0.028 -0.120669,-0.1246 -0.13568,0.1049 -0.162004,0.056 -0.178972,0.02 -0.150071,-0.1 -0.162803,0.018 -0.132487,-0.096 -0.113453,-0.1059 -0.143463,-0.059 -0.158466,-0.015 -0.157623,0.022 -0.159291,-0.046 -0.104172,-0.1289 -0.163117,0.01 -0.144099,0.077 -0.157464,-0.024 -0.15778,-0.021 -0.117036,-0.1182 -0.165825,-0.013 -0.141926,-0.065 -0.132301,-0.083 -0.09064,0.1488 -0.157219,0.075 -0.171443,-0.024 -0.159804,0.067 -0.149806,-0.06 -0.161286,-0.01 -0.140605,-0.097 -0.169371,0.023 -0.100192,0.1334 -0.157774,0.054 -0.120107,0.1115 -0.0582,0.1531 -0.161354,-0.013 -0.150937,0.059 -0.146375,0.06 -0.15269,0.041 -0.159127,0.019 -0.141363,-0.076 -0.162187,0 -0.127711,0.1 -0.152056,0.037 -0.145294,0.058 -0.158924,-0.018 -0.135456,-0.085 -0.164376,-0.013 -0.131635,-0.099 -0.160307,0.011 -0.14692,0.065 -0.130539,0.082 -0.152434,0.024 -0.152894,0.022 -0.130389,0.083 -0.16391,0.02 -0.165077,0 -0.155001,0.061 -0.12928,0.1051 -0.158429,-0.031 -0.161232,-0.01 -0.144605,-0.074 -0.159039,-0.033 -0.08453,-0.1405 -0.105436,-0.1255 -0.16009,-0.035 -0.152719,-0.06 -0.115948,-0.1086 -0.151914,-0.047 -0.131279,-0.082 -0.122567,-0.095 -0.153874,-0.06 -0.164997,0 -0.159009,0.03 -0.158772,0.031 -0.128103,-0.095 -0.136872,-0.082 -0.136381,-0.087 -0.10235,-0.125 -0.155324,0.028 -0.147745,-0.055 -0.153471,0.056 -0.150776,-0.062 -0.146133,0.044 -0.14368,0.051 -0.14672,0.047 -0.154334,0 0.05579,-0.1694 -0.03006,-0.1759 0.170773,-0.072 0.0794,-0.1674 -0.01325,-0.1621 -0.04673,-0.1558 -0.02983,-0.1593 -0.05157,-0.1537 -0.02442,-0.1554 -0.03691,-0.1528 -0.06705,-0.1449 -0.114157,-0.1118 -0.129119,-0.1014 -0.140246,-0.086 -0.09327,-0.1452 0.01133,-0.1723 -0.107772,-0.1207 -0.08976,-0.1346 -0.04573,-0.1593 0.0296,-0.1631 -0.05661,-0.1551 0.05551,-0.1555 -0.01041,-0.1632 0.08859,-0.1374 0.08507,-0.135 0.130147,-0.092 0.09735,-0.127 0.03726,-0.1557 -0.0324,-0.1594 0.06782,-0.1479 -0.03574,-0.1573 0.05546,-0.1514 -0.05825,-0.1476 0.0045,-0.1585 -0.01029,-0.1556 -0.03497,-0.1519 -0.103977,-0.1193 -0.05589,-0.148 -0.07346,-0.1406 -0.121002,-0.1027 -0.08565,-0.132 -0.05249,-0.1483 0.02411,-0.1577 -0.041,-0.1543 0.02575,-0.1517 -1.27e-4,-0.1538 0.005,-0.1535 -0.01269,-0.153 0.03561,-0.1664 -0.03707,-0.1661 -0.09187,-0.1405 L 0,1035.0621 l 0.05821,-0.1593 0.10966,-0.1293 -0.04392,-0.1697 0.06287,-0.1636 0.155067,-0.069 0.07232,-0.1538 0.156698,-0.067 0.07248,-0.1543 0.09061,-0.1384 0.01503,-0.1647 0.11503,-0.1166 0.06055,-0.1521 -0.126069,-0.1158 -0.04435,-0.1652 0.04579,-0.1658 -0.05544,-0.1627 -0.0549,-0.1647 -0.152707,-0.082 -0.105814,-0.1335 -0.0032,-0.1704 0.102248,-0.1397 -0.02092,-0.1719 -0.03931,-0.1592 0.02245,-0.1625 -0.03207,-0.1611 -0.0805,-0.1432 0.01637,-0.1617 -0.0042,-0.1625 0.02558,-0.176 -0.07813,-0.1598 0.03535,-0.1707 -0.0422,-0.1691 5.45e-4,-0.1849 0.10494,-0.1523 0.118524,-0.1337 0.152394,-0.093 0.07849,-0.1445 0.13448,-0.095 0.09487,-0.1292 0.104615,-0.1215 0.13612,-0.1052 0.04681,-0.1656 0.11209,-0.1277 0.162414,-0.05 -0.01549,-0.1762 -0.124901,-0.1253 -0.124218,-0.1137 -0.153127,-0.07 -0.124379,-0.1099 -0.06714,-0.1518 -0.107482,-0.1287 -0.156764,-0.059 -0.169659,-0.075 -0.112293,-0.1478 -0.0221,-0.1785 -0.02899,-0.1774 -0.05487,-0.1662 -0.0238,-0.1733 0.0096,-0.182 0.110048,-0.1453 -0.08004,-0.1539 -0.09977,-0.142 0.05519,-0.1672 -0.0078,-0.1759 -0.0825,-0.153 -0.01293,-0.1734 0.02233,-0.1707 0.07414,-0.1554 0.141698,-0.12 0.07163,-0.1712 0.174354,-0.052 0.15573,-0.094 0.04435,-0.1721 0.06838,-0.1641 -0.0086,-0.1771 -0.0047,-0.1772 -0.06176,-0.1461 -0.07653,-0.1389 0.0034,-0.1608 -0.05073,-0.1525 -0.05296,-0.1483 -0.07689,-0.1373 -0.122857,-0.1091 -0.03964,-0.1593 0.0528,-0.1474 0.06851,-0.1406 0.06122,-0.145 0.02604,-0.1551 0.05536,-0.1459 0.06243,-0.143 0.03095,-0.1562 0.08947,-0.1316 0.03431,-0.1559 0.09306,-0.1297 0.002,-0.1565 0.01295,-0.1559 0.1053,-0.1403 0.172056,-0.034 0.05567,-0.1544 0.04064,-0.1589 -0.04004,-0.1583 0.07344,-0.1457 -0.04507,-0.1462 -0.03266,-0.1495 0.01754,-0.1515 -0.02282,-0.1508 -0.05756,-0.1419 -0.0094,-0.1528 -0.05284,-0.1529 0.01241,-0.1613 -0.106876,-0.1168 -0.110284,-0.1137 -0.0094,-0.1574 -0.09114,-0.1287 -0.03389,-0.1489 0.0018,-0.1527 0.05976,-0.1607 -0.04484,-0.1655 -0.10953,-0.134 -0.0017,-0.173 -0.0068,-0.1764 0.08127,-0.1567 0.163793,-0.066 0.109292,-0.1388 0.02062,-0.1727 -0.09697,-0.1444 0.06039,-0.1601 -0.04238,-0.1657 -0.06385,-0.1547 -0.124313,-0.112 -0.159158,-0.061 -0.09913,-0.1387 0.01859,-0.1629 0.113183,-0.1186 0.0457,-0.1498 0.08053,-0.1343 0.01675,-0.1585 -0.04343,-0.1533 0.07173,-0.1477 -0.02746,-0.162 -0.06593,-0.1489 -0.04679,-0.156 -0.08729,-0.1435 -0.0061,-0.1679 0.01856,-0.1792 -0.06793,-0.167 -0.111306,-0.1409 -0.162277,-0.077 0.136177,-0.1076 0.05707,-0.1639 0.0745,-0.1546 -0.0065,-0.1716 -0.0047,-0.1746 0.104194,-0.1401 0.0013,-0.1651 -0.003,-0.1651 0.06986,-0.1487 -0.03144,-0.1614 0.04452,-0.1498 0.04187,-0.1505 0.107657,-0.1292 0.156667,-0.061 0.107212,-0.1341 0.0052,-0.1717 0.132087,-0.088 0.10176,-0.1218 0.11551,-0.111 0.06342,-0.1472 0.07911,-0.1487 0.115883,-0.1222 0.0031,-0.168 -0.03692,-0.164 -0.03115,-0.1572 -0.02588,-0.1582 0.130745,-0.1103 0.02623,-0.1691 -0.07039,-0.1458 -0.110264,-0.1185 -0.03147,-0.1634 0.05869,-0.1556 0.04861,-0.1514 0.05777,-0.1482 -0.0894,-0.1353 -0.03021,-0.1594 0.0025,-0.1522 -0.05756,-0.141 -0.09897,-0.1219 -0.0073,-0.1569 0.01025,-0.1543 -0.07705,-0.134 0.007,-0.1506 -0.05016,-0.1421 -0.03409,-0.1466 -0.06982,-0.1333 -0.0465,-0.1462 0.02366,-0.1515 -0.01949,-0.1552 -0.08947,-0.1283 0.01032,-0.1526 -0.02715,-0.1506 -0.129706,-0.095 -0.03186,-0.1577 -0.039,-0.1513 -0.114306,-0.1066 0.06619,-0.1482 0.03679,-0.158 6.93e-4,-0.1647 -0.06158,-0.1526 -0.02707,-0.1729 0.08796,-0.1512 0.149225,-0.081 0.09528,-0.1404 -0.04609,-0.1592 0.07344,-0.1486 -0.0394,-0.1504 -0.0045,-0.1554 -0.002,-0.158 -0.0075,-0.1577 0.116914,-0.1192 0.01924,-0.1658 -0.160922,-0.058 -0.155906,-0.07 -0.06902,-0.1594 -0.121183,-0.1245 0.03389,-0.1685 -0.07116,-0.1563 0.02763,-0.1721 -0.09085,-0.1487 -0.109083,-0.1353 -0.01109,-0.1735 -0.01421,-0.1748 0.09718,-0.146 -0.164122,-0.061 -0.106666,-0.139 -0.0056,-0.1712 -0.06695,-0.1576 0.01615,-0.166 0.105817,-0.1289 -0.103092,-0.1321 -0.0069,-0.1674 0.106897,-0.1171 0.07313,-0.1406 0.04377,-0.1598 -0.0605,-0.1541 -0.113375,-0.11521 -0.03905,-0.1568 0.04848,-0.1503 -0.0018,-0.1579 -0.06068,-0.1442 -0.07885,-0.1351 -0.0227,-0.1642 0.0864,-0.1414 0.02142,-0.1621 0.01226,-0.1631 0.05472,-0.1647 0.146437,-0.093 -0.09489,-0.1382 0.01765,-0.1667 -0.0418,-0.152 -0.06205,-0.145 -0.06163,-0.1548 0.04636,-0.16 0.03208,-0.1547 0.05268,-0.1489 0.155603,-0.061 0.07841,-0.1475 0.130083,-0.1001 0.04955,-0.1566"
       id="rect2987-3" />
    <path
       style="fill:#888a85;fill-opacity:0.55555558;stroke:#2e3436;stroke-width:2;stroke-linecap:round;stroke-linejoin:round;stroke-miterlimit:4;stroke-opacity:0"
       d="m 0.92470335,996.62489 0.13279335,-0.1271 0.1803744,-0.035 0.1548477,-0.087 0.1316596,-0.1191 0.1727688,-0.067 0.1830193,0.029 0.1622258,0.087 0.1839217,0 0.1796758,0.042 0.1342254,0.1266 0.098902,0.1576 0.1693801,0.077 0.1821947,0.013 0.1693289,-0.068 0.1775655,0.012 0.1779542,0 0.1282615,-0.12249 0.1227878,-0.12801 0.046046,-0.172 0.015469,-0.17729 0.082286,-0.16301 0.1218975,-0.1358 0.1914093,0.02 0.1598209,-0.1072 0.1644318,-0.073 0.1381788,-0.1154 0.143001,-0.1264 0.022727,-0.1894 0.1597528,-0.086 0.1526178,-0.098 0.1814907,0.01 0.1789618,0.031 0.022829,0.1914 0.1098478,0.1584 -0.049293,0.18731 0.051589,0.18679 0.1487118,0.10861 0.1464213,0.11159 0.1860376,0.055 0.1154459,0.156 0.1900367,-0.016 0.1783644,-0.067 0.1606396,0.1015 0.1787598,0.065 0.1758012,0.058 0.1578353,0.097 0.1131808,0.1451 0.1049091,0.1511 0.1800411,0.024 0.1350212,0.1215 0.1692535,-0.039 0.172483,-0.021 0.1667194,0 0.1628225,0.036 0.1558364,0.072 0.1708139,-0.016 0.166631,0.061 0.1709838,0.048 0.1660096,-0.068 0.1782317,-0.019 0.1273149,-0.1212 0.1447134,-0.1 0.1635798,-0.071 0.1784072,-0.01 0.08761,0.1375 0.157024,0.044 0.145112,0.049 0.130829,0.08 0.160829,0 0.1234,0.1031 0.14249,0.052 0.142256,0.052 0.148567,0.1095 0.184065,-0.013 0.154035,-0.079 0.157599,-0.072 0.156027,0.066 0.162171,0.049 0.139862,0.1083 0.05617,0.1678 0.104328,0.123 0.1183,0.1096 0.167626,0.01 0.137108,0.097 0.162198,0 0.153192,-0.053 0.154828,0.041 0.154976,0.041 0.153368,0.018 0.154403,0 0.148841,-0.045 0.155115,-0.01 0.153356,0.024 0.137644,0.072 0.155244,0.011 0.141765,0.064 0.133666,-0.082 0.151124,-0.043 0.118338,-0.1126 0.161794,-0.022 0.166879,-0.021 0.152556,-0.071 0.15784,0.055 0.142533,0.087 0.149732,-0.061 0.101689,-0.1258 0.148811,-0.074 0.162197,0.036 0.149236,-0.05 0.138781,-0.074 0.152537,0.045 0.158757,-0.01 0.107425,-0.1134 0.123288,-0.096 0.158226,-0.052 0.08341,-0.1443 0.159959,0.037 0.158718,-0.042 0.129068,-0.099 0.15858,-0.038 0.163414,-0.061 0.0773,-0.15629 0.137807,-0.09 0.159644,-0.039 0.15663,-0.066 0.169995,0.01 0.157737,0.052 0.152674,0.066 0.139455,-0.10419 0.102716,-0.1405 0.169846,-0.041 0.173691,0.018 0.158403,-0.051 0.158113,-0.052 0.09933,-0.1348 0.126473,-0.1096 0.165883,-0.044 0.156724,-0.07 0.158693,-0.065 0.150458,-0.082 -0.01257,-0.1848 0.106718,-0.1513 0.129153,-0.1202 0.08895,-0.1523 0.167757,0.055 0.09847,0.1464 0.161456,0.044 0.15167,0.071 0.125838,0.1326 0.17869,0.038 0.182182,0.035 0.16287,-0.089 0.151689,-0.09 0.17277,0.036 0.160447,0.05 0.166994,-0.018 0.169215,0.03 0.153583,-0.077 0.157805,-0.056 0.166379,0.02 0.05832,0.1539 0.13041,0.1003 0.122164,0.1134 0.165644,0.019 0.08891,0.1448 0.161415,0.053 0.158447,0.018 0.158464,0.018 0.154366,-0.042 0.154151,-0.043 0.157753,-0.062 0.161908,0.05 0.107831,0.1311 0.167012,0.03 0.135534,0.092 0.161918,0.023 0.153469,0.077 0.148562,0.087 0.08745,0.148 0.08087,0.1518 0.173688,-0.012 0.173799,-0.01 0.149395,0.09 0.141595,0.1015 0.172629,0.017 0.154196,0.079 0.160297,-0.072 0.17529,0.014 0.177797,0 0.162548,-0.072 0.104251,-0.1409 0.139757,-0.1058 0.107636,-0.1343 0.154806,-0.075 0.137798,-0.096 0.139082,-0.094 0.169298,0 0.166926,-0.029 0.166973,0.023 0.167729,0.017 0.161143,-0.034 0.164273,-0.012 0.158406,0.052 0.166793,0 0.109351,0.1338 0.167921,0.041 0.170605,0.01 0.13943,0.099 0.15458,-0.036 0.125724,-0.097 0.09722,-0.1344 0.161978,-0.036 0.146348,-0.064 0.09747,-0.1265 0.08446,-0.1379 0.147022,-0.067 0.158482,0.062 0.167563,-0.029 0.128463,-0.113 0.169393,-0.024 0.149489,-0.071 0.161139,-0.038 0.150612,-0.091 0.05231,-0.1682 0.153763,0.039 0.151375,0.047 0.158425,-0.036 0.158683,0.035 0.161397,0.01 0.148568,-0.063 0.157706,0.01 0.157484,-0.013 0.101451,0.1302 0.144909,0.079 0.07995,0.1411 0.103143,0.1252 0.148203,0.07 0.128317,0.1019 0.167682,-0.01 0.151682,0.072 0.154478,0.043 0.156306,0.035 0.163914,0.02 0.154238,-0.059 0.169396,0.01 0.163003,0.046 0.113466,-0.1355 0.17131,-0.044 0.174611,0.023 0.167714,-0.054 0.155975,0.073 0.145843,0.091 0.148558,0.084 0.137537,0.1013 0.01855,0.1811 0.132783,0.1246 0.107029,-0.1191 0.08512,-0.1356 0.121359,-0.1035 0.119109,-0.1061 0.137609,-0.087 0.160773,-0.027 0.129071,-0.094 0.13403,-0.087 0.152253,-0.049 0.158223,-0.024 0.169771,0.01 0.13557,-0.1027 0.161597,-0.01 0.154821,0.047 0.160445,0 0.155789,0.038 0.160209,-0.01 0.153319,-0.047 0.158726,-0.048 0.107594,-0.1263 0.162027,-0.021 0.126846,-0.103 0.139111,-0.077 0.110079,-0.1147 0.166038,-0.025 0.139909,0.093 0.148951,0.053 0.157693,0.011 0.163983,0.029 0.148015,-0.076 0.161033,-0.03 0.153323,0.058 0.171651,0.018 0.128151,0.1156 0.147948,0.087 0.171124,-0.01 0.142447,0.099 0.04751,0.1669 0.05149,0.1677 0.151297,0.089 0.146209,0.097 0.153146,0.086 0.163321,-0.085 0.182413,0.025 0.04831,0.1709 0.08123,0.158 0.17717,0.038 0.143118,0.1112 0.164192,0.047 0.167719,-0.032 0.16085,-0.042 0.155731,-0.058 0.159932,-0.041 0.147756,-0.074 0.152815,-0.064 0.129789,-0.1031 0.124397,0.1338 0.179577,0.034 0.163749,-0.063 0.175082,-0.012 0.08841,0.1638 0.175327,0.063 0.175163,0.062 0.172405,-0.07 -0.163761,0.062 -0.169829,0.043 -0.125081,0.1226 -0.109551,0.1366 -0.08436,0.1588 -0.116172,0.1372 -0.03893,0.1823 0.06686,0.1741 -0.02052,0.1596 -0.08201,0.1385 -0.09956,0.1274 -0.03498,0.1578 -0.0091,0.1639 -0.09515,0.1337 -0.09138,0.1407 0.02036,0.1665 0.102292,0.1263 0.01803,0.1615 0.108257,0.1274 -0.0052,0.1671 0.01458,0.1563 0.05069,0.1486 0.02596,0.1542 0.0468,0.14909 0.06003,0.1524 0.11473,0.117 0.08048,0.1403 0.04324,0.1559 -0.06987,0.1539 0.02842,0.1667 0.07366,0.1516 -0.02116,0.1673 -0.02887,0.1589 0.08686,0.1361 0.02793,0.1522 0.09469,0.1223 0.126325,0.095 0.08797,0.1315 0.07292,0.1458 -0.0197,0.1617 0.07273,0.1345 0.04695,0.1454 0.04639,0.1511 -0.03881,0.1533 0.04925,0.1468 0.0035,0.1548 0.05968,0.1449 0.115112,0.1065 0.06103,0.1483 0.05056,0.1522 0.09607,0.135 0.01751,0.1648 0.02239,0.1687 -0.05291,0.1618 -0.05583,0.1639 -0.136242,0.1069 -0.0062,0.1693 0.09123,0.1428 -0.07759,0.1484 0.0072,0.1674 -0.07265,0.1402 -0.06795,0.1426 -0.06995,0.1462 -0.127385,0.1004 -0.0054,0.1603 0.02908,0.1577 0.06292,0.1587 0.152528,0.077 0.04905,0.1513 0.102881,0.1212 0.03352,0.1565 -0.03832,0.1555 -0.0171,0.1629 -0.04033,0.1587 0.04035,0.1586 0.02152,0.1622 0.130809,0.1206 0.173868,0.038 0.05802,0.1616 0.06661,0.1582 0.08873,0.1446 0.101581,0.136 -0.0096,0.1696 -0.03289,0.1667 0.0033,0.1651 -0.08466,0.1417 -0.06146,0.1467 -0.04271,0.1531 -0.12587,0.1054 -0.05328,0.1552 -0.06099,0.1574 -0.149345,0.079 -2.98e-4,0.1638 0.02795,0.1613 -0.08509,0.1405 -0.05007,0.1564 0.114005,0.1237 0.104049,0.1321 0.0168,0.1678 0.04436,0.1628 -0.0437,0.1571 -0.03974,0.1582 -0.07376,0.1583 0.05091,0.167 -0.07584,0.1353 -0.07426,0.1362 -0.0747,0.137 -0.102869,0.1174 -0.08711,0.1282 -0.08699,0.1283 -0.03867,0.1563 -0.114301,0.1134 0.07397,0.1374 -0.0099,0.1558 0.0019,0.1502 -0.01406,0.1496 0.06532,0.1519 -0.04306,0.1597 0.09752,0.122 0.100805,0.1193 0.03583,0.1539 -0.03628,0.1539 -0.06618,0.1391 -0.07585,0.134 0.03683,0.1463 0.03542,0.1466 -0.04172,0.15 0.03603,0.1515 -0.04937,0.1532 -0.04258,0.1552 -0.08649,0.1372 -0.117527,0.1117 -0.07315,0.1579 0.03029,0.1713 0.09547,0.137 0.06496,0.1537 0.04596,0.1535 0.130224,0.093 0.100501,0.1257 -0.0019,0.161 0.0442,0.1642 0.135546,0.1027 -0.0416,0.1565 -0.0052,0.1618 0.01222,0.1579 0.05199,0.1496 -0.05684,0.1488 -0.102715,0.1218 -0.04814,0.1411 -0.01979,0.1479 0.0085,0.1482 0.01929,0.1473 0.151572,0.074 0.07923,0.1488 0.07038,0.1446 0.04706,0.1538 -0.02065,0.1554 -0.017,0.1558 -0.08175,0.1453 0.03049,0.1639 -0.02996,0.1647 -0.04045,0.1624 -0.08335,0.1456 -0.0615,0.1561 -0.13933,0.091 -0.144572,0.082 -0.14422,0.084 -0.12443,0.1116 -0.03236,0.1627 0.01993,0.1648 6.8e-4,0.1758 -0.118253,0.1301 -0.03935,0.167 0.04037,0.1669 0.104573,0.1328 0.05806,0.1588 0.0044,0.1641 0.108852,0.123 0.01706,0.1577 0.08668,0.1329 0.09654,0.1389 0.150209,0.078 0.02315,0.1625 0.02678,0.162 0.05261,0.1591 0.08858,0.1422 -0.04134,0.1613 -0.02542,0.1646 -0.01673,0.1592 -0.0487,0.1524 -0.02636,0.1646 -0.115293,0.1205 -0.09636,0.1199 -0.06229,0.1406 -0.122208,0.1083 -0.01886,0.1621 0.01802,0.1531 0.01126,0.1537 0.0131,0.1599 -0.0743,0.1422 0.08542,0.1281 0.07636,0.1338 0.0633,0.1404 0.05325,0.1445 0.02668,0.1537 0.01601,0.1552 -0.04379,0.1499 -0.02473,0.1543 0.04325,0.1507 0.08419,0.1324 -0.07943,0.1466 0.04153,0.1616 0.09155,0.1235 0.0256,0.1517 0.05737,0.1382 0.04789,0.1417 0.0055,0.1571 -0.03675,0.1529 -0.06544,0.1459 -0.123166,0.102 -0.01662,0.1552 -0.07549,0.1367 0.03465,0.1503 -0.0043,0.1542 -0.0061,0.1577 -0.03405,0.154 -0.06087,0.145 -0.07169,0.1399 0.07169,0.1432 -0.0038,0.16 -0.0061,0.1643 0.09637,0.1331 0.07983,0.1342 0.121193,0.098 0.08842,0.1264 0.06715,0.1388 0.114867,0.1211 0.0082,0.1666 -0.04094,0.156 0.03749,0.1569 -0.0073,0.157 -0.06417,0.1434 0.0026,0.1616 0.09335,0.132 -0.104634,0.116 -0.03377,0.1526 0.02499,0.1549 -0.05863,0.1455 -0.0092,0.1611 0.07273,0.144 0.0042,0.1558 -0.0029,0.1559 -0.110568,0.1232 -0.142746,0.084 -0.08247,0.1484 0.0058,0.1697 -0.06583,0.1755 0.06966,0.174 0.0655,0.1625 0.08779,0.1517 0.124425,0.1285 0.03625,0.1752 0.07881,0.1577 0.0024,0.1763 0.183215,-0.01 0.160573,0.089 0.139752,0.1091 0.119431,0.131 0.166872,0.057 0.150209,0.092 0.152909,0.1017 0.06759,0.1707 -0.0233,0.1672 0.02319,0.1672 0.01213,0.1709 0.08435,0.1492 0.06815,0.1534 0.101852,0.1334 0.110838,0.1411 -0.01675,0.1787 0.08911,0.1549 -0.02202,0.1774 -0.08895,0.156 0.02824,0.1774 -0.04501,0.1797 0.05524,0.1767 -0.07827,0.1674 -0.152334,0.1045 -0.140344,0.1142 -0.05971,0.1708 -0.01336,0.1748 0.02864,0.173 -0.0461,0.1689 -0.13298,0.1138 -0.08553,0.1523 0.01293,0.1743 0.08527,0.1659 0.161065,0.094 -0.039,0.1856 0.08496,0.1696 -0.02339,0.1743 0.04745,0.1692 -0.06621,0.1615 -0.01033,0.1743 -0.03563,0.1675 -0.114841,0.1271 -0.131196,0.101 -0.120372,0.1138 -0.128976,0.1167 -0.02815,0.1716 -0.01825,0.1637 -0.0446,0.1585 -0.121206,0.1283 -0.173953,0.03 -0.136677,0.097 -0.144503,0.085 -0.115116,0.1266 -0.06181,0.1595 -0.03544,0.1661 -0.07871,0.1504 -0.145182,-0.1001 -0.174828,0.023 -0.148219,0.072 -0.148258,0.071 -0.155298,0.044 -0.160973,0.013 -0.147966,-0.063 -0.153375,-0.049 -0.166031,-0.013 -0.165865,0.015 -0.16584,-0.01 -0.164048,-0.026 -0.09015,0.1454 -0.112668,0.1288 -0.140838,0.1003 -0.165668,0.049 -0.165782,0 -0.164367,-0.022 -0.160142,-0.057 -0.118073,-0.1223 -0.08718,-0.1371 -0.125037,-0.1036 -0.125792,-0.1056 -0.07041,-0.1483 -0.129037,-0.093 -0.157656,-0.022 -0.146298,-0.049 -0.146735,-0.048 -0.16311,-0.037 -0.115269,-0.121 -0.160701,-0.044 -0.159173,0.05 -0.155371,0.058 -0.157001,-0.053 -0.126278,0.094 -0.144118,0.063 -0.154837,0.012 -0.148843,-0.044 -0.145581,-0.048 -0.13694,-0.068 -0.167098,0 -0.12809,0.1074 -0.121198,0.1015 -0.107161,0.1162 -0.152161,-0.048 -0.147363,-0.061 -0.158363,0.018 -0.15718,0.026 -0.151916,0.036 -0.146481,0.054 -0.09793,0.1301 -0.153746,0.054 -0.162589,0.029 -0.163594,0.022 -0.09687,0.1338 -0.10747,0.1255 -0.152408,-0.056 -0.120288,-0.109 -0.151115,-0.054 -0.159662,-0.017 -0.164383,0.04 -0.152655,-0.073 -0.156341,0.031 -0.154946,0.037 -0.164803,0.017 -0.116898,0.1175 -0.164625,0.024 -0.110079,0.1247 -0.09656,0.1321 -0.153837,0.056 -0.145381,0.076 -0.07464,0.1463 -0.161202,0.03 -0.163962,9e-4 -0.160922,-0.066 -0.165467,0.053 -0.145658,0.087 -0.162835,0.047 -0.08089,0.1501 -0.12543,0.1156 -0.09621,-0.135 -0.139799,-0.089 -0.14214,-0.086 -0.164804,-0.022 -0.180639,-0.013 -0.144403,0.1093 -0.153504,-0.072 -0.156683,-0.065 -0.165845,0.032 -0.168066,-0.016 -0.161878,-0.062 -0.10615,-0.1373 -0.167501,0.014 -0.153268,-0.069 -0.16532,0.021 -0.140947,0.089 -0.163995,0.017 -0.121438,0.1114 -0.15601,0.014 -0.156633,0 -0.147467,0.067 -0.129392,0.097 -0.158154,-0.043 -0.162661,0.02 -0.151973,-0.09 -0.14591,-0.1 -0.179404,-3e-4 -0.167867,0.063 -0.108918,0.1295 -0.139995,0.095 -0.13656,0.1162 -0.179227,0 -0.152132,-0.075 -0.06721,-0.1556 -0.134898,-0.086 -0.111617,-0.1147 -0.113157,-0.1352 -0.168442,-0.052 -0.175233,-0.042 -0.160521,0.082 -0.122103,-0.1075 -0.121366,-0.1083 -0.09511,-0.1337 -0.126657,-0.1043 -0.167874,0.01 -0.15223,-0.071 -0.16231,-0.053 -0.163879,0.048 -0.131192,0.1029 -0.165655,0.019 -0.160523,-0.029 -0.160222,0.031 -0.152267,0.062 -0.164303,4e-4 -0.147579,-0.075 -0.165383,0 -0.07743,0.1584 -0.02375,0.1747 -0.160783,0.07 -0.141072,0.1039 -0.171446,-0.01 -0.169502,0.027 -0.113794,0.1296 -0.145848,0.092 -0.160676,-0.069 -0.17006,0.041 -0.109292,-0.1408 -0.175878,-0.029 -0.167684,-0.054 -0.167362,0.055 -0.143279,0.087 -0.145825,0.082 -0.161392,0.045 -0.160924,0.047 -0.07445,0.1517 -0.110797,0.1276 -0.157102,0.058 -0.117871,0.1188 -0.161738,0.067 -0.164765,-0.06 -0.104768,-0.1412 -0.03242,-0.1729 -0.106712,-0.1352 -0.07781,-0.1537 -0.171059,-0.072 -0.09748,-0.1581 -0.168307,-0.063 -0.179838,-6e-4 -0.125482,-0.1243 -0.07996,-0.1574 -0.05481,-0.1739 -0.142759,-0.1133 -0.179907,0.05 -0.171275,-0.075 -0.153864,-0.092 -0.177004,-0.028 -0.160286,0.051 -0.158465,0.057 -0.119847,0.1254 -0.164808,0.054 -0.170528,-0.037 -0.165548,-0.055 -0.145766,0.1167 -0.18641,-0.012 -0.165885,8e-4 -0.16098,0.04 -0.163695,-0.041 -0.165594,0.033 -0.165116,-0.064 -0.166851,0.059 -0.144892,-0.092 -0.171714,-0.01 -0.164654,-0.032 -0.167586,-0.01 -0.134831,-0.1007 -0.15265,-0.071 -0.181605,0 -0.147164,-0.1065 -0.16269,0.06 -0.163536,0.058 -0.09465,0.1464 -0.151583,0.086 -0.161455,0.058 -0.171651,0 -0.160881,0.05 -0.129337,0.1079 -0.128638,0.1075 -0.08454,0.1448 -0.159793,0.036 -0.159429,-0.038 -0.123455,0.1014 -0.131231,0.091 -0.134487,0.098 -0.07702,0.1478 -0.156057,0.062 -0.166254,-0.024 -0.155237,0.066 -0.168498,0.01 -0.09788,0.1339 -0.09684,0.1346 -0.136367,0.092 -0.164005,0.016 -0.157569,-0.027 -0.158845,-0.017 -0.148976,-0.057 -0.142534,-0.072 -0.168716,-2e-4 -0.132309,-0.1047 -0.105452,-0.1211 -0.131092,-0.093 -0.103626,-0.1213 -0.109774,-0.1157 -0.165783,-0.01 -0.162196,0.035 -0.171261,-0.028 -0.120669,-0.1247 -0.13568,0.1049 -0.162004,0.056 -0.178972,0.02 -0.150071,-0.1 -0.162803,0.018 -0.132486,-0.096 -0.113453,-0.1059 -0.143463,-0.059 -0.158467,-0.015 -0.157623,0.022 -0.15929,-0.046 -0.104173,-0.129 -0.163117,0.01 -0.144099,0.077 -0.157463,-0.024 -0.157781,-0.021 -0.117035,-0.1182 -0.165826,-0.013 -0.141926,-0.065 -0.132301,-0.083 -0.09064,0.1488 -0.1572205,0.075 -0.1714426,-0.024 -0.1598043,0.067 -0.149806,-0.06 -0.1612857,-0.01 -0.1406055,-0.097 -0.1693701,0.023 -0.1001919,0.1335 -0.1577738,0.054 -0.1201077,0.1115 -0.058204,0.1532 -0.1613541,-0.013 -0.1509369,0.059 -0.1463741,0.06 -0.1526904,0.041 -0.1591271,0.019 -0.1413635,-0.076 -0.1621865,0 -0.1277106,0.1 -0.1520561,0.037 -0.1452943,0.058 -0.1589243,-0.018 -0.1354554,-0.085 -0.1643768,-0.013 -0.1316344,-0.099 -0.1603068,0.011 -0.1469206,0.065 -0.1305386,0.082 -0.1524338,0.024 -0.1528948,0.022 -0.1303886,0.083 -0.1639102,0.02 -0.1650764,0 -0.155001,0.061 -0.1292799,0.1052 -0.15843,-0.031 -0.1612311,-0.01 -0.1446053,-0.074 -0.159039,-0.033 -0.08453,-0.1405 -0.1054366,-0.1255 -0.1600898,-0.035 -0.1527192,-0.06 -0.1159476,-0.1087 -0.1519139,-0.047 -0.1312791,-0.082 -0.1225671,-0.095 -0.1538739,-0.06 -0.1649972,0 -0.1590091,0.03 -0.1587719,0.031 -0.1281023,-0.095 -0.1368724,-0.082 -0.1363811,-0.087 -0.1023498,-0.125 -0.155324,0.028 -0.1477451,-0.055 -0.1534709,0.056 -0.1507759,-0.063 -0.1461333,0.044 -0.1436794,0.051 -0.1467201,0.047 -0.15415935,0 0.0557925,-0.1695 -0.0300577,-0.1758 0.17077355,-0.072 0.079397,-0.1674 -0.013252,-0.1621 -0.046731,-0.1558 -0.029828,-0.1593 -0.051574,-0.1537 -0.024417,-0.1554 -0.0369129,-0.1528 -0.0670551,-0.145 -0.11415691,-0.1117 -0.12911979,-0.1014 -0.14024578,-0.085 -0.0932684,-0.1452 0.0113333,-0.1723 -0.10777169,-0.1207 -0.0897565,-0.1346 -0.0457302,-0.1594 0.0296032,-0.163 -0.0566072,-0.1551 0.0555088,-0.1555 -0.0104132,-0.1632 0.0885883,-0.1374 0.0850725,-0.135 0.13014657,-0.092 0.0973527,-0.1271 0.0372591,-0.1556 -0.0324002,-0.1594 0.0678234,-0.1479 -0.0357408,-0.1573 0.0554598,-0.1515 -0.05825,-0.1475 0.004446,-0.1585 -0.0102943,-0.1556 -0.0349699,-0.1519 -0.10397714,-0.1193 -0.055887,-0.148 -0.0734607,-0.1407 -0.12100193,-0.1026 -0.0856476,-0.132 -0.0524898,-0.1483 0.0241075,-0.1578 -0.0410012,-0.1542 0.0257523,-0.1517 -1.2674e-4,-0.1538 0.004986,-0.1535 -0.0126879,-0.153 0.0356058,-0.1664 -0.037075,-0.1661 -0.09186653,-0.1405 -0.0498392755,-0.1603 0.0582113055,-0.1593 0.1096597,-0.1293 -0.0439226,-0.1697 0.0628647,-0.1636 0.15506722,-0.069 0.0723165,-0.1538 0.15669756,-0.067 0.0724819,-0.1542 0.0906077,-0.1384 0.0150323,-0.1647 0.1150373,-0.1166 0.0605524,-0.1521 -0.12606919,-0.1158 -0.0443493,-0.1653 0.0457877,-0.1657 -0.0554392,-0.1628 -0.0548999,-0.1646 -0.15270632,-0.083 -0.10581454,-0.1335 -0.003243,-0.1703 0.10224766,-0.1398 -0.0209223,-0.1719 -0.0393076,-0.1592 0.0224503,-0.1624 -0.0320744,-0.1611 -0.080499,-0.1432 0.0163718,-0.1618 -0.004241,-0.1625 0.0255818,-0.176 -0.0781281,-0.1597 0.0353539,-0.1707 -0.0422029,-0.1691 5.457e-4,-0.185 0.10493932,-0.1522 0.11852404,-0.1337 0.15239415,-0.093 0.0784901,-0.1446 0.13448045,-0.095 0.094869,-0.1292 0.1046143,-0.1215 0.13612,-0.1053 0.046815,-0.1656 0.1120907,-0.1276 0.1624135,-0.05 -0.015487,-0.1762 -0.1249006,-0.1254 -0.1242172,-0.1137 -0.1531272,-0.07 -0.1243792,-0.1099 -0.0671373,-0.1518 -0.10748215,-0.1287 -0.15676355,-0.059 -0.16965992,-0.075 -0.11229296,-0.1478 -0.0220982,-0.1785 -0.028994,-0.1775 -0.0548683,-0.1661 -0.0237971,-0.1733 0.00957,-0.182 0.11004854,-0.1453 -0.0800428,-0.154 -0.0997673,-0.142 0.0551922,-0.1671 -0.007819,-0.1759 -0.0824981,-0.153 -0.0129281,-0.1734 0.0223271,-0.1707 0.0741413,-0.1554 0.14169778,-0.12 0.0716289,-0.1713 0.17435391,-0.052 0.15573039,-0.094 0.0443502,-0.1721 0.068377,-0.164 -0.008622,-0.1771 -0.004728,-0.1772 -0.0617562,-0.1461 -0.0765269,-0.139 0.003412,-0.1607 -0.0507339,-0.1525 -0.0529587,-0.1483 -0.0768873,-0.1374 -0.12285762,-0.109 -0.0396422,-0.1594 0.0527988,-0.1473 0.0685144,-0.1407 0.061223,-0.1449 0.0260358,-0.1552 0.0553638,-0.1459 0.0624254,-0.143 0.0309488,-0.1561 0.0894736,-0.1317 0.0343057,-0.1559 0.0930619,-0.1297 0.00204,-0.1564 0.012949,-0.1559 0.1053008,-0.1404 0.1720555,-0.034 0.055672,-0.1544 0.040638,-0.159 -0.040043,-0.1582 0.07344,-0.1457 -0.045071,-0.1463 -0.032657,-0.1495 0.017537,-0.1514 -0.022816,-0.1508 -0.057564,-0.1419 -0.00942,-0.1529 -0.052844,-0.1528 0.012414,-0.1613 -0.1068756,-0.1169 -0.110284,-0.1136 -0.00944,-0.1575 -0.0911375,-0.1287 -0.0338919,-0.1489 0.001778,-0.1527 0.05976,-0.1607 -0.0448421,-0.1655 -0.1095306,-0.1339 -0.001733,-0.173 -0.006788,-0.1765 0.0812646,-0.1567 0.16379344,-0.066 0.1092917,-0.1387 0.020619,-0.1727 -0.096975,-0.1445 0.060389,-0.16 -0.042382,-0.1657 -0.06385,-0.1547 -0.12431303,-0.112 -0.15915825,-0.061 -0.0991256,-0.1386 0.0185881,-0.1629 0.11318247,-0.1187 0.0457034,-0.1498 0.0805353,-0.1343 0.016748,-0.1584 -0.0434277,-0.1533 0.0717247,-0.1478 -0.0274539,-0.1619 -0.0659267,-0.1489 -0.0467881,-0.156 -0.087293,-0.1436 -0.00605,-0.1678 0.0185638,-0.1793 -0.0679284,-0.1669 -0.1113059,-0.1409 -0.16227692,-0.077 0.13617694,-0.1076 0.0570743,-0.1639 0.0745039,-0.1547 -0.006531,-0.1715 -0.004674,-0.1746 0.10419394,-0.1402 0.001291,-0.165 -0.003049,-0.1651 0.0698596,-0.1488 -0.0314363,-0.1613 0.0445212,-0.1498 0.0418737,-0.1505 0.1076568,-0.1293 0.15666765,-0.061 0.1072116,-0.1342 0.00517,-0.1716 0.1320871,-0.088 0.1017601,-0.1218 0.1155103,-0.1111 0.063422,-0.1471 0.079114,-0.1487 0.1158827,-0.1222 0.00311,-0.1681 -0.036921,-0.1639 -0.031147,-0.1572 -0.025881,-0.1582 0.1307442,-0.1104 0.026231,-0.169 -0.070392,-0.1458 -0.1102635,-0.1185 -0.031471,-0.1634 0.058694,-0.1556 0.048611,-0.1515 0.057774,-0.1482 -0.0894,-0.1353 -0.030207,-0.1593 0.00249,-0.1523 -0.057565,-0.141 -0.098974,-0.1219 -0.00733,-0.1569 0.010246,-0.1542 -0.077046,-0.134 0.00699,-0.1506 -0.050161,-0.1422 -0.034085,-0.1466 -0.069824,-0.1333 -0.0465,-0.1461 0.023657,-0.1516 -0.019493,-0.1552 -0.089472,-0.1282 0.010321,-0.1527 -0.027144,-0.1505 -0.1297057,-0.095 -0.031864,-0.1576 -0.038998,-0.1514 -0.11430581,-0.1066 0.066187,-0.1481 0.0367882,-0.1581 6.93e-4,-0.1646 -0.0615832,-0.1527 -0.0270725,-0.1728 0.0879639,-0.1512 0.1492244,-0.081 0.09528,-0.1404 -0.046091,-0.1592 0.073444,-0.1486 -0.0394,-0.1504 -0.00454,-0.1555 -0.00201,-0.1579 -0.0075,-0.1578 0.1169117,-0.1191 0.019239,-0.1658 -0.1609219,-0.058 -0.1559063,-0.07 -0.0690227,-0.1595 -0.12118291,-0.1245 0.0338877,-0.1684 -0.0711574,-0.1564 0.0276288,-0.172 -0.0908521,-0.1487 -0.10908287,-0.1354 -0.0110902,-0.1734 -0.0142143,-0.1749 0.0971831,-0.146 -0.16412251,-0.061 -0.10666601,-0.139 -0.005617,-0.1712 -0.0669499,-0.1577 0.0161475,-0.1659 0.10581694,-0.1289 -0.10309166,-0.1321 -0.006907,-0.1675 0.10689669,-0.117 0.0731246,-0.1407 0.043766,-0.1597 -0.0605051,-0.1542 -0.11337477,-0.11509 -0.0390493,-0.1568 0.0484803,-0.1503 -0.001815,-0.158 -0.0606761,-0.1441 -0.078851,-0.1351 -0.0227036,-0.1642 0.0864034,-0.1414 0.021425,-0.1622 0.0122569,-0.1631 0.0547208,-0.1647 0.14643697,-0.093 -0.0948872,-0.1382 0.0176501,-0.1668 -0.0418033,-0.152 -0.0620521,-0.1449 -0.0616266,-0.1548 0.0463597,-0.1601 0.0320839,-0.1546 0.0526855,-0.1489 0.15560326,-0.061 0.0784053,-0.1475 0.13008282,-0.1002 0.0495461,-0.1565"
       id="rect2987"
       inkscape:connector-curvature="0" />
  </g>
</svg>
